<svg width="12" height="7" viewBox="0 0 12 7" fill="none" xmlns="http://www.w3.org/2000/svg">
<path d="M11.2623 6.05059C11.3302 5.98286 11.3841 5.9024 11.4209 5.81381C11.4576 5.72522 11.4766 5.63025 11.4766 5.53434C11.4766 5.43843 11.4576 5.34346 11.4209 5.25488C11.3841 5.16629 11.3302 5.08583 11.2623 5.01809L6.41484 0.170592C6.36088 0.116515 6.29677 0.0736125 6.22621 0.04434C6.15564 0.0150674 6.07999 -1.71538e-07 6.00359 -1.73967e-07C5.92719 -1.76395e-07 5.85155 0.0150674 5.78098 0.04434C5.71041 0.0736125 5.64631 0.116515 5.59234 0.170592L0.74484 5.01809C0.459007 5.30393 0.459007 5.76476 0.74484 6.05059C1.03067 6.33643 1.49151 6.33643 1.77734 6.05059L6.00651 1.82726L10.2357 6.05643C10.5157 6.33643 10.9823 6.33643 11.2623 6.05059Z" fill="#252525"/>
</svg>
