<svg width="275" height="120" viewBox="0 0 275 120" fill="none" xmlns="http://www.w3.org/2000/svg">
<path d="M229.958 107.208C243.328 107.208 254.167 96.3692 254.167 82.9994C254.167 69.6295 243.328 58.791 229.958 58.791C216.588 58.791 205.75 69.6295 205.75 82.9994C205.75 96.3692 216.588 107.208 229.958 107.208Z" fill="#FFDADA" stroke="#FFDADA" stroke-linecap="round" stroke-linejoin="round"/>
<path d="M209.191 29.7331C222.561 29.7331 233.399 18.8946 233.399 5.52474C233.399 -7.84515 222.561 -18.6836 209.191 -18.6836C195.821 -18.6836 184.982 -7.84515 184.982 5.52474C184.982 18.8946 195.821 29.7331 209.191 29.7331Z" fill="#FFDADA" stroke="#FFDADA" stroke-linecap="round" stroke-linejoin="round"/>
<path d="M168.55 127.433C179.246 127.433 187.917 118.762 187.917 108.066C187.917 97.37 179.246 88.6992 168.55 88.6992C157.854 88.6992 149.184 97.37 149.184 108.066C149.184 118.762 157.854 127.433 168.55 127.433Z" fill="#FFDADA" stroke="#FFDADA" stroke-linecap="round" stroke-linejoin="round"/>
<path d="M-18.5493 127.433C-7.85343 127.433 0.817322 118.762 0.817322 108.066C0.817322 97.37 -7.85343 88.6992 -18.5493 88.6992C-29.2453 88.6992 -37.916 97.37 -37.916 108.066C-37.916 118.762 -29.2453 127.433 -18.5493 127.433Z" fill="#FFDADA" stroke="#FFDADA" stroke-linecap="round" stroke-linejoin="round"/>
<path d="M-18.5493 77.2997C-7.85343 77.2997 0.817322 68.629 0.817322 57.9331C0.817322 47.2372 -7.85343 38.5664 -18.5493 38.5664C-29.2453 38.5664 -37.916 47.2372 -37.916 57.9331C-37.916 68.629 -29.2453 77.2997 -18.5493 77.2997Z" fill="#FFDADA" stroke="#FFDADA" stroke-linecap="round" stroke-linejoin="round"/>
<path d="M6.51706 33.8837C17.213 33.8837 25.8837 25.213 25.8837 14.5171C25.8837 3.82114 17.213 -4.84961 6.51706 -4.84961C-4.17886 -4.84961 -12.8496 3.82114 -12.8496 14.5171C-12.8496 25.213 -4.17886 33.8837 6.51706 33.8837Z" fill="#FFDADA" stroke="#FFDADA" stroke-linecap="round" stroke-linejoin="round"/>
<path d="M49.9331 8.81732C60.629 8.81732 69.2997 0.146574 69.2997 -10.5493C69.2997 -21.2453 60.629 -29.916 49.9331 -29.916C39.2372 -29.916 30.5664 -21.2453 30.5664 -10.5493C30.5664 0.146574 39.2372 8.81732 49.9331 8.81732Z" fill="#FFDADA" stroke="#FFDADA" stroke-linecap="round" stroke-linejoin="round"/>
<path d="M100.066 8.81732C110.762 8.81732 119.433 0.146574 119.433 -10.5493C119.433 -21.2453 110.762 -29.916 100.066 -29.916C89.37 -29.916 80.6992 -21.2453 80.6992 -10.5493C80.6992 0.146574 89.37 8.81732 100.066 8.81732Z" fill="#FFDADA" stroke="#FFDADA" stroke-linecap="round" stroke-linejoin="round"/>
<path d="M143.484 33.8837C154.18 33.8837 162.851 25.213 162.851 14.5171C162.851 3.82114 154.18 -4.84961 143.484 -4.84961C132.788 -4.84961 124.117 3.82114 124.117 14.5171C124.117 25.213 132.788 33.8837 143.484 33.8837Z" fill="#FFDADA" stroke="#FFDADA" stroke-linecap="round" stroke-linejoin="round"/>
<path d="M168.55 77.2997C179.246 77.2997 187.917 68.629 187.917 57.9331C187.917 47.2372 179.246 38.5664 168.55 38.5664C157.854 38.5664 149.184 47.2372 149.184 57.9331C149.184 68.629 157.854 77.2997 168.55 77.2997Z" fill="#FFDADA" stroke="#FFDADA" stroke-linecap="round" stroke-linejoin="round"/>
<path d="M133.109 92.6831C138.457 92.6831 142.792 88.3477 142.792 82.9997C142.792 77.6518 138.457 73.3164 133.109 73.3164C127.761 73.3164 123.426 77.6518 123.426 82.9997C123.426 88.3477 127.761 92.6831 133.109 92.6831Z" fill="#FFDADA" stroke="#FFDADA" stroke-linecap="round" stroke-linejoin="round"/>
<path d="M125.326 121.734C130.674 121.734 135.009 117.398 135.009 112.051C135.009 106.703 130.674 102.367 125.326 102.367C119.978 102.367 115.643 106.703 115.643 112.051C115.643 117.398 119.978 121.734 125.326 121.734Z" fill="#FFDADA" stroke="#FFDADA" stroke-linecap="round" stroke-linejoin="round"/>
<path d="M24.6755 121.734C30.0235 121.734 34.3588 117.398 34.3588 112.051C34.3588 106.703 30.0235 102.367 24.6755 102.367C19.3276 102.367 14.9922 106.703 14.9922 112.051C14.9922 117.398 19.3276 121.734 24.6755 121.734Z" fill="#FFDADA" stroke="#FFDADA" stroke-linecap="round" stroke-linejoin="round"/>
<path d="M16.8923 92.6831C22.2403 92.6831 26.5757 88.3477 26.5757 82.9997C26.5757 77.6518 22.2403 73.3164 16.8923 73.3164C11.5444 73.3164 7.20898 77.6518 7.20898 82.9997C7.20898 88.3477 11.5444 92.6831 16.8923 92.6831Z" fill="#FFDADA" stroke="#FFDADA" stroke-linecap="round" stroke-linejoin="round"/>
<path d="M24.6755 63.6342C30.0235 63.6342 34.3588 59.2989 34.3588 53.9509C34.3588 48.603 30.0235 44.2676 24.6755 44.2676C19.3276 44.2676 14.9922 48.603 14.9922 53.9509C14.9922 59.2989 19.3276 63.6342 24.6755 63.6342Z" fill="#FFDADA" stroke="#FFDADA" stroke-linecap="round" stroke-linejoin="round"/>
<path d="M45.9509 42.3588C51.2989 42.3588 55.6342 38.0235 55.6342 32.6755C55.6342 27.3276 51.2989 22.9922 45.9509 22.9922C40.603 22.9922 36.2676 27.3276 36.2676 32.6755C36.2676 38.0235 40.603 42.3588 45.9509 42.3588Z" fill="#FFDADA" stroke="#FFDADA" stroke-linecap="round" stroke-linejoin="round"/>
<path d="M74.9997 34.5757C80.3477 34.5757 84.6831 30.2403 84.6831 24.8923C84.6831 19.5444 80.3477 15.209 74.9997 15.209C69.6518 15.209 65.3164 19.5444 65.3164 24.8923C65.3164 30.2403 69.6518 34.5757 74.9997 34.5757Z" fill="#FFDADA" stroke="#FFDADA" stroke-linecap="round" stroke-linejoin="round"/>
<path d="M104.051 42.3588C109.398 42.3588 113.734 38.0235 113.734 32.6755C113.734 27.3276 109.398 22.9922 104.051 22.9922C98.7026 22.9922 94.3672 27.3276 94.3672 32.6755C94.3672 38.0235 98.7026 42.3588 104.051 42.3588Z" fill="#FFDADA" stroke="#FFDADA" stroke-linecap="round" stroke-linejoin="round"/>
<path d="M125.326 63.6342C130.674 63.6342 135.009 59.2989 135.009 53.9509C135.009 48.603 130.674 44.2676 125.326 44.2676C119.978 44.2676 115.643 48.603 115.643 53.9509C115.643 59.2989 119.978 63.6342 125.326 63.6342Z" fill="#FFDADA" stroke="#FFDADA" stroke-linecap="round" stroke-linejoin="round"/>
<path d="M75.0003 109.826C89.6036 109.826 101.442 97.8158 101.442 83.0008C101.442 68.1857 89.6036 56.1758 75.0003 56.1758C60.3969 56.1758 48.5586 68.1857 48.5586 83.0008C48.5586 97.8158 60.3969 109.826 75.0003 109.826Z" fill="#FFDADA" stroke="#FFDADA" stroke-linecap="round" stroke-linejoin="round"/>
</svg>
