<svg width="18" height="18" viewBox="0 0 18 18" fill="none" xmlns="http://www.w3.org/2000/svg">
<path d="M0.5 16.912C0.5 15.3207 1.13214 13.7946 2.25736 12.6694C3.38258 11.5441 4.9087 10.912 6.5 10.912C8.0913 10.912 9.61742 11.5441 10.7426 12.6694C11.8679 13.7946 12.5 15.3207 12.5 16.912H11C11 15.7185 10.5259 14.5739 9.68198 13.73C8.83807 12.8861 7.69347 12.412 6.5 12.412C5.30653 12.412 4.16193 12.8861 3.31802 13.73C2.47411 14.5739 2 15.7185 2 16.912H0.5ZM6.5 10.162C4.01375 10.162 2 8.14825 2 5.662C2 3.17575 4.01375 1.162 6.5 1.162C8.98625 1.162 11 3.17575 11 5.662C11 8.14825 8.98625 10.162 6.5 10.162ZM6.5 8.662C8.1575 8.662 9.5 7.3195 9.5 5.662C9.5 4.0045 8.1575 2.662 6.5 2.662C4.8425 2.662 3.5 4.0045 3.5 5.662C3.5 7.3195 4.8425 8.662 6.5 8.662ZM15.911 1C16.6297 2.44887 17.0024 4.04469 17 5.662C17 7.33675 16.6077 8.92 15.911 10.324L14.6772 9.427C15.2212 8.24647 15.5019 6.9618 15.5 5.662C15.5018 4.36221 15.221 3.07757 14.6772 1.897L15.911 1ZM13.4345 2.8C13.8091 3.70762 14.0012 4.68012 14 5.662C14.0012 6.64388 13.8091 7.61638 13.4345 8.524L12.1768 7.609C12.3914 6.98233 12.5006 6.32441 12.5 5.662C12.5008 4.99964 12.3919 4.34172 12.1775 3.715L13.4345 2.8Z" fill="#252525" stroke="#252525" stroke-width="0.4"/>
</svg>
