<svg width="90" height="34" viewBox="0 0 90 34" fill="none" xmlns="http://www.w3.org/2000/svg">
<path fill-rule="evenodd" clip-rule="evenodd" d="M19.1696 4.21807L26.4774 21.6098L27.9189 20.1571L29.1299 18.9382C32.9149 15.124 33.282 9.134 29.7424 5.56757C26.9624 2.7666 22.703 2.39932 19.1696 4.21807ZM22.4246 25.6941L20.8523 21.4439H11.3603L9.78754 25.7064L15.2699 31.229C15.7298 31.6891 16.4724 31.6891 16.9322 31.229L22.4246 25.6941ZM5.73915 21.6283L4.27869 20.1571L3.06767 18.9382C-0.717097 15.124 -1.08901 9.134 2.45064 5.56757C4.22002 3.78484 6.62183 2.98011 9.01683 3.10663C10.3787 3.1794 11.7454 3.5506 13.0189 4.20744L5.73915 21.6283ZM16.1003 8.59751L12.7589 17.6537H19.4503L16.1003 8.59751Z" fill="#252525"/>
<path d="M31.5613 15.6629C32.3273 14.714 33.3477 14.2395 34.6225 14.2395C35.2798 14.2395 35.843 14.3767 36.3117 14.6511C36.7861 14.9197 37.1406 15.3113 37.3749 15.8258C37.8094 15.2885 38.2896 14.8912 38.8155 14.6339C39.3414 14.3709 39.9331 14.2395 40.5905 14.2395C41.5737 14.2395 42.3312 14.5225 42.8627 15.0884C43.3944 15.6486 43.6602 16.4432 43.6602 17.4721V23.5859H41.0278V17.618C41.0278 17.0806 40.922 16.6918 40.7105 16.4518C40.499 16.2117 40.1589 16.0916 39.6901 16.0916C39.2671 16.0916 38.8812 16.1859 38.5326 16.3746C38.1838 16.5575 37.8923 16.8176 37.6579 17.1549C37.6579 17.1778 37.6637 17.2321 37.6751 17.3178C37.6865 17.3979 37.6922 17.4922 37.6922 17.6008V23.5859H35.0598V17.618C35.0598 17.0806 34.954 16.6918 34.7426 16.4518C34.531 16.2117 34.1909 16.0916 33.7221 16.0916C33.3105 16.0916 32.9276 16.1888 32.5731 16.3831C32.2187 16.5718 31.9357 16.829 31.7243 17.1549V23.5859H29.0918V14.3853H31.2869L31.5613 15.6629ZM47.807 15.2599C48.4872 14.5796 49.3132 14.2395 50.285 14.2395C51.5598 14.2395 52.5516 14.6396 53.2605 15.44C53.9693 16.2345 54.3237 17.3521 54.3237 18.7926C54.3237 20.3132 53.8778 21.5137 52.9861 22.394C52.0943 23.2686 50.871 23.706 49.3161 23.706C48.5215 23.706 47.7469 23.6545 46.9924 23.5516C46.2435 23.443 45.6375 23.303 45.1745 23.1314V10.3809H47.807V15.2599ZM49.7363 16.1087C49.256 16.1087 48.8416 16.2431 48.4929 16.5118C48.1499 16.7804 47.9213 17.1377 47.807 17.5836V21.6909C48.1956 21.8453 48.6587 21.9196 49.196 21.9138C49.9906 21.9138 50.5966 21.6566 51.0139 21.1422C51.4369 20.6276 51.6484 19.8731 51.6484 18.8784C51.6484 17.9638 51.4855 17.2749 51.1596 16.8119C50.8338 16.3432 50.3593 16.1087 49.7363 16.1087ZM57.1156 19.4786C57.2528 21.0449 58.0588 21.8281 59.5337 21.8281C59.991 21.8281 60.4512 21.7766 60.9142 21.6737C61.3772 21.5652 61.8889 21.3936 62.4491 21.1593L63.0836 22.7971C61.6888 23.443 60.3997 23.7631 59.2164 23.7574C57.7644 23.7574 56.624 23.3343 55.7951 22.4883C54.9662 21.6423 54.5518 20.4676 54.5518 18.9642C54.5518 17.4664 54.9576 16.3003 55.7694 15.4656C56.5812 14.6253 57.7187 14.2052 59.1821 14.2052C61.9318 14.2052 63.3066 15.7629 63.3066 18.8784V19.4786H57.1156ZM60.8885 17.9523C60.8142 16.6719 60.2511 16.0316 59.1993 16.0316C58.6162 16.0316 58.156 16.1916 57.8188 16.5118C57.4872 16.8262 57.27 17.3064 57.167 17.9523H60.8885ZM66.6215 15.6629C67.1989 14.714 68.0078 14.2395 69.0481 14.2395C69.2711 14.2395 69.4597 14.2538 69.6141 14.2824C69.7741 14.3052 69.9771 14.351 70.2229 14.4196L69.9228 16.7176C69.4312 16.5404 68.9967 16.4546 68.6194 16.4603C68.2078 16.4603 67.8591 16.5347 67.5733 16.6833C67.2875 16.8262 67.0474 17.0548 66.853 17.3693V23.5859H64.2121V14.3853H66.3042L66.6215 15.6629ZM73.032 15.6629C73.609 14.714 74.4183 14.2395 75.4588 14.2395C75.6812 14.2395 75.87 14.2538 76.0244 14.2824C76.1846 14.3052 76.3873 14.351 76.6332 14.4196L76.3332 16.7176C75.8415 16.5404 75.4068 16.4546 75.03 16.4603C74.618 16.4603 74.2697 16.5347 73.9837 16.6833C73.6983 16.8262 73.4576 17.0548 73.2636 17.3693V23.5859H70.6225V14.3853H72.7147L73.032 15.6629ZM77.0758 10.681H79.7085V13.0819H77.0758V10.681ZM77.0758 14.4882H79.7085V23.5859H77.0758V14.4882ZM83.2376 19.4786C83.3751 21.0449 84.1807 21.8281 85.6558 21.8281C86.1132 21.8281 86.5734 21.7766 87.0358 21.6737C87.499 21.5652 88.0105 21.3936 88.571 21.1593L89.2054 22.7971C87.8107 23.443 86.5215 23.7631 85.3383 23.7574C83.8866 23.7574 82.7458 23.3343 81.9168 22.4883C81.0885 21.6423 80.6736 20.4676 80.6736 18.9642C80.6736 17.4664 81.0797 16.3003 81.8912 15.4656C82.7034 14.6253 83.8405 14.2052 85.3039 14.2052C88.0536 14.2052 89.4285 15.7629 89.4285 18.8784V19.4786H83.2376ZM87.0102 17.9523C86.9363 16.6719 86.3729 16.0316 85.3215 16.0316C84.7383 16.0316 84.278 16.1916 83.9407 16.5118C83.6093 16.8262 83.3919 17.3064 83.2888 17.9523H87.0102Z" fill="#252525"/>
</svg>
