<svg width="70" height="70" viewBox="0 0 70 70" fill="none" xmlns="http://www.w3.org/2000/svg">
<g filter="url(#filter0_d_361_21330)">
<rect x="14" y="12" width="34" height="34" rx="9" fill="white" shape-rendering="crispEdges"/>
<rect x="16" y="42.4336" width="40.2108" height="2.21559" rx="1.10779" transform="rotate(-45 16 42.4336)" fill="#FF5C00"/>
<rect x="15" y="13" width="32" height="32" rx="8" stroke="#FF5C00" stroke-width="2" shape-rendering="crispEdges"/>
</g>
<path d="M38.1957 33.2301L38.1887 33.2231L38.1805 33.2176L38.1778 33.2158C38.1172 33.1754 38.0503 33.1308 37.9822 33.0968C37.9129 33.0621 37.8344 33.0341 37.75 33.0341H37.4229C38.6496 31.5372 39.4333 29.5812 39.4333 27.4674C39.4333 22.6622 35.4719 18.7008 30.6667 18.7008C25.8195 18.7008 21.9 22.6625 21.9 27.4674C21.9 32.3143 25.8198 36.2341 30.6667 36.2341C32.7822 36.2341 34.7011 35.4879 36.2333 34.2619V34.5924C36.2333 34.7409 36.2831 34.8849 36.3751 35.0229L36.3806 35.0312L36.3876 35.0382L41.4293 40.0798C41.6704 40.3209 42.0711 40.3347 42.2827 40.0761L43.2337 39.1252C43.4923 38.9136 43.4784 38.5128 43.2374 38.2717L38.1957 33.2301ZM30.6667 34.0341C27.0136 34.0341 24.1 31.1206 24.1 27.4674C24.1 23.8556 27.014 20.9008 30.6667 20.9008C34.2781 20.9008 37.2333 23.856 37.2333 27.4674C37.2333 31.1201 34.2785 34.0341 30.6667 34.0341Z" fill="#FF5C00" stroke="#FF5C00" stroke-width="0.2"/>
<defs>
<filter id="filter0_d_361_21330" x="0" y="0" width="70" height="70" filterUnits="userSpaceOnUse" color-interpolation-filters="sRGB">
<feFlood flood-opacity="0" result="BackgroundImageFix"/>
<feColorMatrix in="SourceAlpha" type="matrix" values="0 0 0 0 0 0 0 0 0 0 0 0 0 0 0 0 0 0 127 0" result="hardAlpha"/>
<feOffset dx="4" dy="6"/>
<feGaussianBlur stdDeviation="9"/>
<feComposite in2="hardAlpha" operator="out"/>
<feColorMatrix type="matrix" values="0 0 0 0 0.295833 0 0 0 0 0.237899 0 0 0 0 0.269599 0 0 0 0.2 0"/>
<feBlend mode="normal" in2="BackgroundImageFix" result="effect1_dropShadow_361_21330"/>
<feBlend mode="normal" in="SourceGraphic" in2="effect1_dropShadow_361_21330" result="shape"/>
</filter>
</defs>
</svg>
