<svg width="22" height="23" viewBox="0 0 22 23" fill="none" xmlns="http://www.w3.org/2000/svg">
<path d="M16.3949 15.2293L16.3879 15.2223L16.3797 15.2168L16.377 15.2151C16.3164 15.1746 16.2495 15.1301 16.1814 15.096C16.1121 15.0614 16.0336 15.0334 15.9492 15.0334H15.6222C16.8488 13.5365 17.6326 11.5804 17.6326 9.46671C17.6326 4.66149 13.6711 0.700049 8.86588 0.700049C4.01868 0.700049 0.0992187 4.6618 0.0992187 9.46671C0.0992187 14.3136 4.01899 18.2334 8.86588 18.2334C10.9814 18.2334 12.9003 17.4871 14.4326 16.2612V16.5917C14.4326 16.7401 14.4823 16.8841 14.5743 17.0222L14.5798 17.0304L14.5868 17.0374L19.6285 22.0791C19.8696 22.3202 20.2703 22.334 20.482 22.0754L21.4329 21.1245C21.6915 20.9128 21.6777 20.5121 21.4366 20.271L16.3949 15.2293ZM8.86588 16.0334C5.21278 16.0334 2.29922 13.1198 2.29922 9.46671C2.29922 5.85487 5.21319 2.90005 8.86588 2.90005C12.4773 2.90005 15.4326 5.85528 15.4326 9.46671C15.4326 13.1194 12.4777 16.0334 8.86588 16.0334Z" fill="#252525" stroke="#252525" stroke-width="0.2"/>
</svg>
