<svg width="19" height="23" viewBox="0 0 19 23" fill="none" xmlns="http://www.w3.org/2000/svg">
<path d="M13.2721 13.6167C12.7323 13.6167 12.3222 13.7482 11.8716 13.8927C11.81 13.9124 11.7477 13.9324 11.6843 13.9523C11.1559 14.118 10.5362 14.2833 9.5638 14.2833C8.57042 14.2833 7.94021 14.118 7.40676 13.9523C7.33994 13.9315 7.2745 13.9107 7.20992 13.8901C6.75893 13.7466 6.35049 13.6167 5.8138 13.6167C2.70237 13.6167 0.180469 16.1812 0.180469 19.2917V20.3333C0.180469 21.4859 1.07785 22.3833 2.23047 22.3833H16.8971C18.0074 22.3833 18.9471 21.4866 18.9471 20.3333V19.2917C18.9471 16.1807 16.3831 13.6167 13.2721 13.6167ZM2.28047 20.2833V19.2917C2.28047 17.3185 3.84217 15.7167 5.8138 15.7167C5.96223 15.7167 6.13328 15.7564 6.34456 15.8188C6.42671 15.8431 6.51576 15.871 6.61153 15.9011C6.75786 15.947 6.91989 15.9979 7.09705 16.0481C7.68898 16.2157 8.47488 16.3833 9.5638 16.3833C10.632 16.3833 11.4075 16.2157 11.9942 16.0481C12.167 15.9987 12.326 15.9485 12.47 15.9031C12.5677 15.8722 12.6586 15.8435 12.7421 15.8188C12.9527 15.7564 13.1237 15.7167 13.2721 15.7167C15.2445 15.7167 16.8471 17.3193 16.8471 19.2917V20.2833H2.28047ZM9.5638 13.05C12.8829 13.05 15.6138 10.3612 15.6138 7C15.6138 3.68072 12.8831 0.95 9.5638 0.95C6.20263 0.95 3.5138 3.68095 3.5138 7C3.5138 10.3609 6.20286 13.05 9.5638 13.05ZM9.5638 3.05C11.7029 3.05 13.5138 4.86095 13.5138 7C13.5138 9.18038 11.7032 10.95 9.5638 10.95C7.38308 10.95 5.6138 9.18072 5.6138 7C5.6138 4.86061 7.38342 3.05 9.5638 3.05Z" fill="#252525" stroke="#252525" stroke-width="0.1"/>
</svg>
