<svg width="45" height="44" viewBox="0 0 45 44" fill="none" xmlns="http://www.w3.org/2000/svg">
<rect x="0.5" width="44" height="44" rx="22" fill="white"/>
<path d="M34.3227 15.675C34.4602 15.125 34.3227 14.6666 33.4975 14.6666H30.7929C30.1052 14.6666 29.7843 15.0333 29.601 15.4458C29.601 15.4458 28.2257 18.7916 26.3004 20.9916C25.6586 21.5875 25.3835 21.8166 25.0168 21.8166C24.8793 21.8166 24.6042 21.5875 24.6042 21.0375V15.675C24.6042 14.9875 24.4209 14.6666 23.8249 14.6666H19.6075C19.1491 14.6666 18.9198 14.9875 18.9198 15.3083C18.9198 15.95 19.8825 16.0875 19.9742 17.9208V21.9083C19.9742 22.7791 19.8367 22.9625 19.4699 22.9625C18.5531 22.9625 16.3527 19.5708 15.0233 15.7208C14.7482 14.9875 14.4732 14.6666 13.7856 14.6666H11.0809C10.3474 14.6666 10.1641 15.0333 10.1641 15.4458C10.1641 16.1791 11.0809 19.7083 14.4273 24.4291C16.6736 27.6375 19.8367 29.3333 22.6789 29.3333C24.375 29.3333 24.6042 28.9666 24.6042 28.325C24.6042 25.2541 24.4667 24.9333 25.2919 24.9333C25.7044 24.9333 26.3921 25.1625 27.9965 26.7208C29.8302 28.5541 30.1511 29.3333 31.1596 29.3333H33.8643C34.6436 29.3333 35.0103 28.9666 34.7811 28.1875C34.2768 26.6291 30.8387 23.3291 30.6553 23.1C30.2428 22.5958 30.3803 22.3666 30.6553 21.9083C30.6553 21.9083 33.956 17.2333 34.3227 15.675Z" fill="#252525"/>
</svg>
