<svg width="12" height="12" viewBox="0 0 12 12" fill="none" xmlns="http://www.w3.org/2000/svg">
<g clip-path="url(#clip0_3474_98705)">
<path d="M3.44941 11.4811C3.51714 11.549 3.5976 11.6029 3.68619 11.6396C3.77478 11.6764 3.86975 11.6953 3.96566 11.6953C4.06157 11.6953 4.15654 11.6764 4.24512 11.6396C4.33371 11.6029 4.41417 11.549 4.48191 11.4811L9.32941 6.63359C9.38349 6.57963 9.42639 6.51552 9.45566 6.44496C9.48493 6.37439 9.5 6.29874 9.5 6.22234C9.5 6.14594 9.48493 6.0703 9.45566 5.99973C9.42639 5.92916 9.38349 5.86506 9.32941 5.81109L4.48191 0.96359C4.19607 0.677757 3.73524 0.677757 3.44941 0.96359C3.16357 1.24942 3.16357 1.71026 3.44941 1.99609L7.67274 6.22526L3.44357 10.4544C3.16357 10.7344 3.16357 11.2011 3.44941 11.4811Z" fill="#252525"/>
</g>
<defs>
<clipPath id="clip0_3474_98705">
<rect width="12" height="12" fill="white" transform="translate(0 12) rotate(-90)"/>
</clipPath>
</defs>
</svg>
