<svg width="9" height="9" viewBox="0 0 9 9" fill="none" xmlns="http://www.w3.org/2000/svg">
<path d="M5.81858 4.48622L8.81858 1.514C8.98524 1.34733 8.98524 1.04178 8.81858 0.875109L8.12413 0.180664C7.95747 0.0139974 7.65191 0.0139974 7.48524 0.180664L4.51302 3.18066L1.51302 0.180664C1.34635 0.0139974 1.0408 0.0139974 0.874132 0.180664L0.179688 0.875109C0.0130208 1.04178 0.0130208 1.34733 0.179688 1.514L3.17969 4.48622L0.179688 7.48622C0.0130208 7.65289 0.0130208 7.95844 0.179688 8.12511L0.874132 8.81955C1.0408 8.98622 1.34635 8.98622 1.51302 8.81955L4.51302 5.81955L7.48524 8.81955C7.65191 8.98622 7.95747 8.98622 8.12413 8.81955L8.81858 8.12511C8.98524 7.95844 8.98524 7.65289 8.81858 7.48622L5.81858 4.48622Z" fill="#252525"/>
</svg>
