<svg width="23" height="18" viewBox="0 0 23 18" fill="none" xmlns="http://www.w3.org/2000/svg">
<path d="M0.998631 13.2053L0.998246 13.2054L1.0008 13.2105C1.15242 13.5138 1.45683 13.743 1.83866 13.743C3.77318 13.743 5.34317 12.9799 6.40322 12.3237C6.56372 12.3587 6.73227 12.3853 6.89943 12.4117L6.90013 12.4118C7.06739 12.4382 7.23325 12.4644 7.39073 12.4987C8.57052 14.5838 11.2418 16.0399 14.4168 16.0399C15.1431 16.0399 15.8695 15.9678 16.5604 15.8236C17.6211 16.4799 19.1912 17.2066 21.1616 17.2066C21.5057 17.2066 21.8116 17.0148 21.9638 16.6724L21.9638 16.6724L21.9647 16.6702C22.0785 16.3665 22.0414 15.9846 21.7732 15.7164L21.7722 15.7153L21.7655 15.7079L21.7394 15.6785C21.7165 15.6526 21.6833 15.6144 21.6416 15.5651C21.5582 15.4664 21.4414 15.3234 21.3074 15.1464C21.0436 14.7976 20.7143 14.3174 20.4446 13.7838C21.4231 12.7968 22.0401 11.555 22.0401 10.1666C22.0401 7.22716 19.2192 4.81436 15.5723 4.40519C14.4278 2.28463 11.721 0.793252 8.58345 0.793252C6.479 0.793252 4.57441 1.45199 3.1951 2.51511C1.81578 3.57824 0.96012 5.04743 0.96012 6.66659C0.96012 8.01859 1.54097 9.26017 2.55504 10.2832C2.26771 10.817 1.92938 11.2975 1.66097 11.6509C1.52464 11.8304 1.40646 11.977 1.32221 12.0811L1.31056 12.0955C1.2739 12.1408 1.24409 12.1777 1.22294 12.2048C1.21132 12.2197 1.20184 12.2322 1.19515 12.2419C1.19185 12.2466 1.18871 12.2514 1.18624 12.2559C1.18573 12.2568 1.18517 12.2578 1.1846 12.2589C0.95836 12.4904 0.886152 12.8678 0.998631 13.2053ZM6.07753 10.3465L6.06068 10.3423L6.0461 10.3518L5.42631 10.7528L5.42628 10.7528L5.42479 10.7538C4.94685 11.0952 4.43628 11.3403 3.9536 11.5192C4.02273 11.3682 4.11374 11.2164 4.2063 11.0622L4.20643 11.0623L4.208 11.059L4.75488 9.9288L4.76726 9.9032L4.74715 9.88309L3.8357 8.97164C3.3652 8.50114 2.79012 7.70867 2.79012 6.66659C2.79012 5.58995 3.44529 4.57994 4.50036 3.83732C5.55497 3.09501 7.00514 2.62325 8.58345 2.62325C10.1435 2.62325 11.5937 3.09497 12.6529 3.83736C13.7127 4.58011 14.3768 5.59015 14.3768 6.66659C14.3768 7.76136 13.7126 8.77134 12.653 9.50942C11.5939 10.2472 10.1436 10.7099 8.58345 10.7099C7.96509 10.7099 7.38547 10.6735 6.8067 10.5288L6.07753 10.3465ZM18.2166 13.3831L18.196 13.4038L18.2094 13.4297L18.7918 14.5582C18.8533 14.7113 18.9396 14.864 19.0291 15.0146C18.5257 14.8327 18.0509 14.5594 17.5738 14.2527L17.5731 14.2522L16.9168 13.8512L16.9023 13.8423L16.8858 13.8467L16.1935 14.0288C16.1935 14.0288 16.1934 14.0289 16.1933 14.0289C15.6147 14.1735 14.9987 14.2099 14.4168 14.2099C12.4937 14.2099 10.7479 13.5108 9.69234 12.4938C13.3814 12.0642 16.2068 9.62578 16.2068 6.66659C16.2068 6.6126 16.1985 6.55887 16.1901 6.50516C16.1895 6.50074 16.1888 6.49631 16.1881 6.49188C16.1813 6.44769 16.1747 6.40226 16.1718 6.35299C17.3121 6.62818 18.3165 7.1396 19.0382 7.79898C19.7706 8.46809 20.2101 9.28749 20.2101 10.1666C20.2101 11.2079 19.5995 12.0002 19.1281 12.4716L18.2166 13.3831Z" fill="#252525" stroke="#252525" stroke-width="0.08"/>
</svg>
