<svg width="120" height="120" viewBox="0 0 120 120" fill="none" xmlns="http://www.w3.org/2000/svg">
<g clip-path="url(#clip0_361_22160)">
<path d="M40.5868 121.227C23.2156 110.107 20.7793 99.3388 20.7793 85.7829C20.7793 65.2834 56.1064 28.7967 56.1064 11.6545C56.139 8.12222 55.6313 4.6057 54.6007 1.22693C65.6471 9.27663 80.6648 23.4708 80.6648 44.3211C81.0958 51.2988 79.7811 58.2738 76.8397 64.6159C79.9293 64.3418 82.8645 63.1424 85.262 61.1744C87.6594 59.2063 89.4078 56.5611 90.2786 53.5841C99.834 63.4269 102.095 72.115 102.095 85.7829C101.414 92.9346 99.1211 99.8391 95.3893 105.978C91.6574 112.117 86.5833 117.33 80.5478 121.227C83.1881 118.709 85.2732 115.667 86.6695 112.297C88.0657 108.926 88.7424 105.301 88.656 101.653C88.656 93.6621 82.1704 94.9338 78.8132 94.9338C76.8798 94.8589 74.9827 94.3861 73.2405 93.5447C71.4982 92.7034 69.9482 91.5117 68.6874 90.0442C67.4266 88.5767 66.482 86.8648 65.9128 85.0157C65.3436 83.1666 65.1619 81.2199 65.3791 79.2973C65.3791 65.4004 69.3163 59.8406 63.6396 48.9502C57.6169 66.2093 36.5376 79.7603 36.5376 102.925C36.3395 109.268 37.7315 115.56 40.5868 121.227Z" fill="url(#paint0_linear_361_22160)"/>
</g>
<defs>
<linearGradient id="paint0_linear_361_22160" x1="61.4371" y1="1.22693" x2="61.4371" y2="121.227" gradientUnits="userSpaceOnUse">
<stop stop-color="#FFC300"/>
<stop offset="1" stop-color="#FF7A00"/>
</linearGradient>
<clipPath id="clip0_361_22160">
<rect width="120" height="120" fill="white"/>
</clipPath>
</defs>
</svg>
