<svg width="19" height="18" viewBox="0 0 19 18" fill="none" xmlns="http://www.w3.org/2000/svg">
<path d="M16.864 2.03657C14.7494 0.250114 11.5046 0.505322 9.49938 2.58345C7.45771 0.505322 4.21292 0.250114 2.09833 2.03657C-0.636041 4.33345 -0.235 8.08866 1.73375 10.0939L8.11396 16.6199C8.47854 16.9845 8.9525 17.2032 9.49938 17.2032C10.0098 17.2032 10.4838 16.9845 10.8483 16.6199L17.265 10.0939C19.1973 8.08866 19.5983 4.33345 16.864 2.03657ZM15.989 8.85428L9.60875 15.3803C9.53583 15.4532 9.46292 15.4532 9.35354 15.3803L2.97333 8.85428C1.62438 7.50532 1.36917 4.95324 3.22854 3.38553C4.65042 2.18241 6.83792 2.3647 8.22333 3.75011L9.49938 5.06261L10.7754 3.75011C12.1244 2.3647 14.3119 2.18241 15.7338 3.34907C17.5931 4.95324 17.3379 7.50532 15.989 8.85428Z" fill="#background: #FF5C00;
"/>
<path d="M8.06033 16.6723L8.06093 16.6729C8.43844 17.0505 8.93106 17.2782 9.49938 17.2782C10.032 17.2782 10.5244 17.0499 10.9014 16.6729L10.9018 16.6725L17.3185 10.1464L17.319 10.1459C19.2759 8.11513 19.6856 4.30886 16.9123 1.97921C14.7837 0.181043 11.533 0.422879 9.4989 2.47664C7.42964 0.423251 4.17893 0.180724 2.05002 1.97921C-0.72336 4.30892 -0.313735 8.11551 1.68023 10.1464L8.06033 16.6723Z" stroke="#FF5C00" stroke-width="1.8"/>
</svg>
