<svg width="25" height="18" viewBox="0 0 25 18" fill="none" xmlns="http://www.w3.org/2000/svg">
<path d="M18.334 8.99992C20.2663 8.99992 21.834 7.43221 21.834 5.49992C21.834 3.56763 20.2663 1.99992 18.334 1.99992C16.4017 1.99992 14.834 3.56763 14.834 5.49992C14.834 7.43221 16.4017 8.99992 18.334 8.99992ZM18.334 3.74992C19.2819 3.74992 20.084 4.552 20.084 5.49992C20.084 6.48429 19.2819 7.24992 18.334 7.24992C17.3496 7.24992 16.584 6.48429 16.584 5.49992C16.584 4.552 17.3496 3.74992 18.334 3.74992ZM10.7507 9.72909C10.3132 9.72909 9.87565 9.802 9.43815 9.94784C8.92773 10.0937 8.38086 10.1666 7.79753 10.1666C7.25065 10.1666 6.70378 10.0937 6.19336 9.94784C5.75586 9.802 5.31836 9.72909 4.88086 9.72909C3.56836 9.72909 2.29232 10.3489 1.52669 11.4426C1.08919 12.1353 0.833984 12.9374 0.833984 13.8124V15.4166C0.833984 16.401 1.59961 17.1666 2.58398 17.1666H13.084C14.0319 17.1666 14.834 16.401 14.834 15.4166V13.8124C14.834 12.9374 14.5423 12.1353 14.1048 11.4426C13.3392 10.3489 12.0632 9.72909 10.7507 9.72909ZM13.084 15.4166H2.58398V13.8124C2.58398 12.7551 3.24023 11.8437 4.18815 11.5155C4.55273 11.3697 4.95378 11.3697 5.35482 11.5155C6.1569 11.7708 6.99544 11.9166 7.83398 11.9166C8.67253 11.9166 9.47461 11.7708 10.3132 11.5155C10.6777 11.3697 11.0788 11.3697 11.4798 11.5155C12.3913 11.8437 13.084 12.7551 13.084 13.8124V15.4166ZM7.83398 8.99992C10.0579 8.99992 11.9173 7.177 11.9173 4.91659C11.9173 2.69263 10.0579 0.833252 7.83398 0.833252C5.57357 0.833252 3.75065 2.69263 3.75065 4.91659C3.75065 7.177 5.57357 8.99992 7.83398 8.99992ZM7.83398 2.58325C9.11003 2.58325 10.1673 3.64054 10.1673 4.91659C10.1673 6.22909 9.11003 7.24992 7.83398 7.24992C6.52148 7.24992 5.50065 6.22909 5.50065 4.91659C5.50065 3.64054 6.52148 2.58325 7.83398 2.58325ZM23.5475 11.2603C22.9277 10.3124 21.8704 9.802 20.7402 9.802C19.7559 9.802 19.5007 10.1666 18.334 10.1666C17.1673 10.1666 16.9121 9.802 15.8913 9.802C15.3809 9.802 14.9434 9.91138 14.5059 10.1301C14.6882 10.3124 14.9069 10.5676 15.0892 10.7864C15.235 11.0416 15.3809 11.3333 15.5267 11.5885C15.6361 11.5885 15.7454 11.552 15.8913 11.552C16.5111 11.552 16.9486 11.9166 18.334 11.9166C19.6829 11.9166 20.1204 11.552 20.7402 11.552C21.3236 11.552 21.834 11.8072 22.0892 12.2083C22.3079 12.4999 22.4173 12.828 22.4173 13.1926V14.2499H16.0007V15.4166C16.0007 15.6353 15.9642 15.8176 15.9277 15.9999H22.709C23.5111 15.9999 24.1673 15.3801 24.1673 14.5416V13.1926C24.1673 12.4635 23.9486 11.8072 23.5475 11.2603Z" fill="#252525" stroke="#252525" stroke-width="0.16"/>
</svg>
