<svg width="12" height="7" viewBox="0 0 12 7" fill="none" xmlns="http://www.w3.org/2000/svg">
<path d="M0.743517 0.949407C0.675612 1.01714 0.621737 1.0976 0.584978 1.18619C0.548218 1.27478 0.529297 1.36975 0.529297 1.46566C0.529297 1.56157 0.548218 1.65654 0.584978 1.74512C0.621737 1.83371 0.675612 1.91417 0.743517 1.98191L5.59102 6.82941C5.64498 6.88348 5.70909 6.92639 5.77965 6.95566C5.85022 6.98493 5.92587 7 6.00227 7C6.07867 7 6.15431 6.98493 6.22488 6.95566C6.29545 6.92639 6.35955 6.88348 6.41352 6.82941L11.261 1.98191C11.5469 1.69607 11.5469 1.23524 11.261 0.949407C10.9752 0.663573 10.5144 0.663573 10.2285 0.949407L5.99935 5.17274L1.77018 0.943574C1.49018 0.663574 1.02352 0.663573 0.743517 0.949407Z" fill="#252525"/>
</svg>
