<svg width="7" height="12" viewBox="0 0 7 12" fill="none" xmlns="http://www.w3.org/2000/svg">
<path d="M0.949407 10.9811C1.01714 11.049 1.0976 11.1029 1.18619 11.1396C1.27478 11.1764 1.36975 11.1953 1.46566 11.1953C1.56157 11.1953 1.65654 11.1764 1.74512 11.1396C1.83371 11.1029 1.91417 11.049 1.98191 10.9811L6.82941 6.13359C6.88348 6.07963 6.92639 6.01552 6.95566 5.94496C6.98493 5.87439 7 5.79874 7 5.72234C7 5.64594 6.98493 5.5703 6.95566 5.49973C6.92639 5.42916 6.88349 5.36506 6.82941 5.31109L1.98191 0.46359C1.69607 0.177757 1.23524 0.177757 0.949407 0.46359C0.663574 0.749424 0.663574 1.21026 0.949407 1.49609L5.17274 5.72526L0.943575 9.95443C0.663574 10.2344 0.663573 10.7011 0.949407 10.9811Z" fill="#252525"/>
</svg>
