<svg width="275" height="120" viewBox="0 0 275 120" fill="none" xmlns="http://www.w3.org/2000/svg">
<path d="M229.958 107.208C243.328 107.208 254.167 96.37 254.167 83.0001C254.167 69.6302 243.328 58.7917 229.958 58.7917C216.588 58.7917 205.75 69.6302 205.75 83.0001C205.75 96.37 216.588 107.208 229.958 107.208Z" fill="#FFDADA" stroke="#FFDADA" stroke-linecap="round" stroke-linejoin="round"/>
<path d="M209.191 29.7333C222.561 29.7333 233.399 18.8949 233.399 5.52498C233.399 -7.84491 222.561 -18.6833 209.191 -18.6833C195.821 -18.6833 184.982 -7.84491 184.982 5.52498C184.982 18.8949 195.821 29.7333 209.191 29.7333Z" fill="#FFDADA" stroke="#FFDADA" stroke-linecap="round" stroke-linejoin="round"/>
<path d="M168.55 127.433C179.246 127.433 187.917 118.763 187.917 108.067C187.917 97.3707 179.246 88.7 168.55 88.7C157.854 88.7 149.184 97.3707 149.184 108.067C149.184 118.763 157.854 127.433 168.55 127.433Z" fill="#FFDADA" stroke="#FFDADA" stroke-linecap="round" stroke-linejoin="round"/>
<path d="M-18.5493 127.433C-7.85343 127.433 0.817322 118.763 0.817322 108.067C0.817322 97.3707 -7.85343 88.7 -18.5493 88.7C-29.2453 88.7 -37.916 97.3707 -37.916 108.067C-37.916 118.763 -29.2453 127.433 -18.5493 127.433Z" fill="#FFDADA" stroke="#FFDADA" stroke-linecap="round" stroke-linejoin="round"/>
<path d="M-18.5493 77.3C-7.85343 77.3 0.817322 68.6292 0.817322 57.9333C0.817322 47.2374 -7.85343 38.5667 -18.5493 38.5667C-29.2453 38.5667 -37.916 47.2374 -37.916 57.9333C-37.916 68.6292 -29.2453 77.3 -18.5493 77.3Z" fill="#FFDADA" stroke="#FFDADA" stroke-linecap="round" stroke-linejoin="round"/>
<path d="M6.51706 33.8834C17.213 33.8834 25.8837 25.2126 25.8837 14.5167C25.8837 3.82077 17.213 -4.84998 6.51706 -4.84998C-4.17886 -4.84998 -12.8496 3.82077 -12.8496 14.5167C-12.8496 25.2126 -4.17886 33.8834 6.51706 33.8834Z" fill="#FFDADA" stroke="#FFDADA" stroke-linecap="round" stroke-linejoin="round"/>
<path d="M49.9331 8.81671C60.629 8.81671 69.2997 0.145964 69.2997 -10.55C69.2997 -21.2459 60.629 -29.9166 49.9331 -29.9166C39.2372 -29.9166 30.5664 -21.2459 30.5664 -10.55C30.5664 0.145964 39.2372 8.81671 49.9331 8.81671Z" fill="#FFDADA" stroke="#FFDADA" stroke-linecap="round" stroke-linejoin="round"/>
<path d="M100.066 8.81671C110.762 8.81671 119.433 0.145964 119.433 -10.55C119.433 -21.2459 110.762 -29.9166 100.066 -29.9166C89.37 -29.9166 80.6992 -21.2459 80.6992 -10.55C80.6992 0.145964 89.37 8.81671 100.066 8.81671Z" fill="#FFDADA" stroke="#FFDADA" stroke-linecap="round" stroke-linejoin="round"/>
<path d="M143.484 33.8834C154.18 33.8834 162.851 25.2126 162.851 14.5167C162.851 3.82077 154.18 -4.84998 143.484 -4.84998C132.788 -4.84998 124.117 3.82077 124.117 14.5167C124.117 25.2126 132.788 33.8834 143.484 33.8834Z" fill="#FFDADA" stroke="#FFDADA" stroke-linecap="round" stroke-linejoin="round"/>
<path d="M168.55 77.3C179.246 77.3 187.917 68.6292 187.917 57.9333C187.917 47.2374 179.246 38.5667 168.55 38.5667C157.854 38.5667 149.184 47.2374 149.184 57.9333C149.184 68.6292 157.854 77.3 168.55 77.3Z" fill="#FFDADA" stroke="#FFDADA" stroke-linecap="round" stroke-linejoin="round"/>
<path d="M133.109 92.6833C138.457 92.6833 142.792 88.348 142.792 83C142.792 77.652 138.457 73.3167 133.109 73.3167C127.761 73.3167 123.426 77.652 123.426 83C123.426 88.348 127.761 92.6833 133.109 92.6833Z" fill="#FFDADA" stroke="#FFDADA" stroke-linecap="round" stroke-linejoin="round"/>
<path d="M125.326 121.733C130.674 121.733 135.009 117.398 135.009 112.05C135.009 106.702 130.674 102.367 125.326 102.367C119.978 102.367 115.643 106.702 115.643 112.05C115.643 117.398 119.978 121.733 125.326 121.733Z" fill="#FFDADA" stroke="#FFDADA" stroke-linecap="round" stroke-linejoin="round"/>
<path d="M24.6755 121.733C30.0235 121.733 34.3588 117.398 34.3588 112.05C34.3588 106.702 30.0235 102.367 24.6755 102.367C19.3276 102.367 14.9922 106.702 14.9922 112.05C14.9922 117.398 19.3276 121.733 24.6755 121.733Z" fill="#FFDADA" stroke="#FFDADA" stroke-linecap="round" stroke-linejoin="round"/>
<path d="M16.8923 92.6833C22.2403 92.6833 26.5757 88.348 26.5757 83C26.5757 77.652 22.2403 73.3167 16.8923 73.3167C11.5444 73.3167 7.20898 77.652 7.20898 83C7.20898 88.348 11.5444 92.6833 16.8923 92.6833Z" fill="#FFDADA" stroke="#FFDADA" stroke-linecap="round" stroke-linejoin="round"/>
<path d="M24.6755 63.6333C30.0235 63.6333 34.3588 59.2979 34.3588 53.9499C34.3588 48.602 30.0235 44.2666 24.6755 44.2666C19.3276 44.2666 14.9922 48.602 14.9922 53.9499C14.9922 59.2979 19.3276 63.6333 24.6755 63.6333Z" fill="#FFDADA" stroke="#FFDADA" stroke-linecap="round" stroke-linejoin="round"/>
<path d="M45.9509 42.3584C51.2989 42.3584 55.6342 38.023 55.6342 32.675C55.6342 27.3271 51.2989 22.9917 45.9509 22.9917C40.603 22.9917 36.2676 27.3271 36.2676 32.675C36.2676 38.023 40.603 42.3584 45.9509 42.3584Z" fill="#FFDADA" stroke="#FFDADA" stroke-linecap="round" stroke-linejoin="round"/>
<path d="M74.9997 34.5749C80.3477 34.5749 84.6831 30.2396 84.6831 24.8916C84.6831 19.5436 80.3477 15.2083 74.9997 15.2083C69.6518 15.2083 65.3164 19.5436 65.3164 24.8916C65.3164 30.2396 69.6518 34.5749 74.9997 34.5749Z" fill="#FFDADA" stroke="#FFDADA" stroke-linecap="round" stroke-linejoin="round"/>
<path d="M104.051 42.3584C109.398 42.3584 113.734 38.023 113.734 32.675C113.734 27.3271 109.398 22.9917 104.051 22.9917C98.7026 22.9917 94.3672 27.3271 94.3672 32.675C94.3672 38.023 98.7026 42.3584 104.051 42.3584Z" fill="#FFDADA" stroke="#FFDADA" stroke-linecap="round" stroke-linejoin="round"/>
<path d="M125.326 63.6333C130.674 63.6333 135.009 59.2979 135.009 53.9499C135.009 48.602 130.674 44.2666 125.326 44.2666C119.978 44.2666 115.643 48.602 115.643 53.9499C115.643 59.2979 119.978 63.6333 125.326 63.6333Z" fill="#FFDADA" stroke="#FFDADA" stroke-linecap="round" stroke-linejoin="round"/>
<path d="M75.0003 109.825C89.6036 109.825 101.442 97.8151 101.442 83C101.442 68.185 89.6036 56.175 75.0003 56.175C60.3969 56.175 48.5586 68.185 48.5586 83C48.5586 97.8151 60.3969 109.825 75.0003 109.825Z" fill="#FFDADA" stroke="#FFDADA" stroke-linecap="round" stroke-linejoin="round"/>
</svg>
