<svg width="22" height="16" viewBox="0 0 22 16" fill="none" xmlns="http://www.w3.org/2000/svg">
<path d="M11.05 3.90342V3.86191L10.9955 3.86687L10.9927 3.86713C10.5936 3.90341 10.1884 3.94024 9.81897 4.05107L9.75621 4.06989L9.79093 4.12546C9.96659 4.40651 10.0387 4.76063 10.075 5.08609C10.0735 6.18683 9.14916 7.075 8.08333 7.075C7.72361 7.075 7.37113 7.00276 7.12802 6.8291L7.07115 6.78848L7.05107 6.85542C6.94078 7.22304 6.86667 7.59264 6.86667 8C6.86667 10.288 8.71197 12.1333 11 12.1333C13.288 12.1333 15.1333 10.288 15.1333 8C15.1333 5.76457 13.3146 3.93007 11.05 3.90342ZM21.3989 7.46722L21.3987 7.46689C19.4221 3.58681 15.4681 0.95 11 0.95C6.49553 0.95 2.54151 3.58673 0.564822 7.46689L0.564654 7.46722C0.487559 7.62141 0.45 7.8117 0.45 8C0.45 8.22398 0.487288 8.4145 0.564652 8.56924L0.564823 8.56957C2.54164 12.45 6.49581 15.05 11 15.05C15.4678 15.05 19.4219 12.4499 21.3987 8.56957L21.3989 8.56923C21.476 8.41505 21.5135 8.22476 21.5135 8.03646C21.5135 7.81248 21.4763 7.62195 21.3989 7.46722ZM11 13.2C7.41827 13.2 4.12461 11.2151 2.37977 8C4.12461 4.78495 7.41827 2.8 11 2.8C14.5453 2.8 17.8389 4.78485 19.5838 8C17.8389 11.2151 14.5453 13.2 11 13.2Z" fill="#252525" stroke="#252525" stroke-width="0.1"/>
</svg>
