<svg width="23" height="16" viewBox="0 0 23 16" fill="none" xmlns="http://www.w3.org/2000/svg">
<path d="M11.55 3.90342V3.86191L11.4955 3.86687L11.4927 3.86713C11.0936 3.90341 10.6884 3.94024 10.319 4.05107L10.2562 4.06989L10.2909 4.12546C10.4666 4.40651 10.5387 4.76063 10.575 5.08609C10.5735 6.18683 9.64916 7.075 8.58333 7.075C8.22361 7.075 7.87113 7.00276 7.62802 6.8291L7.57115 6.78848L7.55107 6.85542C7.44078 7.22304 7.36667 7.59264 7.36667 8C7.36667 10.288 9.21197 12.1333 11.5 12.1333C13.788 12.1333 15.6333 10.288 15.6333 8C15.6333 5.76457 13.8146 3.93007 11.55 3.90342ZM21.8989 7.46722L21.8987 7.46689C19.9221 3.58681 15.9681 0.95 11.5 0.95C6.99553 0.95 3.04151 3.58673 1.06482 7.46689L1.06465 7.46722C0.987559 7.62141 0.95 7.8117 0.95 8C0.95 8.22398 0.987288 8.4145 1.06465 8.56924L1.06482 8.56957C3.04164 12.45 6.99581 15.05 11.5 15.05C15.9678 15.05 19.9219 12.4499 21.8987 8.56957L21.8989 8.56923C21.976 8.41505 22.0135 8.22476 22.0135 8.03646C22.0135 7.81248 21.9763 7.62195 21.8989 7.46722ZM11.5 13.2C7.91827 13.2 4.62461 11.2151 2.87977 8C4.62461 4.78495 7.91827 2.8 11.5 2.8C15.0453 2.8 18.3389 4.78485 20.0838 8C18.3389 11.2151 15.0453 13.2 11.5 13.2Z" fill="#FF5C00" stroke="#FF5C00" stroke-width="0.1"/>
</svg>
