<svg width="28" height="28" viewBox="0 0 28 28" fill="none" xmlns="http://www.w3.org/2000/svg">
<path d="M25.8227 7.67484C25.9602 7.12484 25.8227 6.6665 24.9975 6.6665H22.2929C21.6052 6.6665 21.2843 7.03317 21.101 7.44567C21.101 7.44567 19.7257 10.7915 17.8004 12.9915C17.1586 13.5873 16.8835 13.8165 16.5168 13.8165C16.3793 13.8165 16.1042 13.5873 16.1042 13.0373V7.67484C16.1042 6.98734 15.9209 6.6665 15.3249 6.6665H11.1075C10.6491 6.6665 10.4198 6.98734 10.4198 7.30817C10.4198 7.94984 11.3825 8.08734 11.4742 9.92067V13.9082C11.4742 14.779 11.3367 14.9623 10.9699 14.9623C10.0531 14.9623 7.8527 11.5707 6.52329 7.72067C6.24824 6.98734 5.97319 6.6665 5.28556 6.6665H2.5809C1.84743 6.6665 1.66406 7.03317 1.66406 7.44567C1.66406 8.179 2.5809 11.7082 5.92735 16.429C8.1736 19.6373 11.3367 21.3332 14.1789 21.3332C15.875 21.3332 16.1042 20.9665 16.1042 20.3248C16.1042 17.254 15.9667 16.9332 16.7919 16.9332C17.2044 16.9332 17.8921 17.1623 19.4965 18.7207C21.3302 20.554 21.6511 21.3332 22.6596 21.3332H25.3643C26.1436 21.3332 26.5103 20.9665 26.2811 20.1873C25.7768 18.629 22.3387 15.329 22.1553 15.0998C21.7428 14.5957 21.8803 14.3665 22.1553 13.9082C22.1553 13.9082 25.456 9.23317 25.8227 7.67484Z" fill="#252525"/>
</svg>
